<svg xmlns="http://www.w3.org/2000/svg" width="1280" height="720" viewBox="0 0 1280 720" role="img" aria-label="Logarys global architecture">
  <defs>
    <marker id="arrow" markerWidth="10" markerHeight="10" refX="8" refY="3" orient="auto"><path d="M0,0 L0,6 L9,3 z" fill="#9fb1d5"/></marker>
    <linearGradient id="bg" x1="0" x2="1" y1="0" y2="1"><stop offset="0" stop-color="#070a1a"/><stop offset="1" stop-color="#111629"/></linearGradient>
  </defs>
  <rect width="1280" height="720" rx="28" fill="url(#bg)"/>
  <text x="48" y="62" font-family="Inter,Arial" font-size="30" font-weight="800" fill="#fff">Logarys global architecture</text>
  <text x="48" y="94" font-family="Inter,Arial" font-size="16" fill="#9fb1d5">Realtime logs and pipeline management</text>

  <g font-family="Inter,Arial" font-size="15" fill="#d7e1f7">
    <rect x="48" y="160" width="170" height="86" rx="16" fill="#151c31" stroke="#334155"/>
    <text x="88" y="195" font-weight="800" fill="#fff">Log sources</text>
    <text x="70" y="222">Apps, agents, APIs</text>

    <rect x="288" y="160" width="170" height="86" rx="16" fill="#151c31" stroke="#334155"/>
    <text x="342" y="195" font-weight="800" fill="#fff">Ingestor</text>
    <text x="315" y="222">Normalize events</text>

    <rect x="528" y="160" width="190" height="86" rx="16" fill="#082f49" stroke="#14b8e6"/>
    <text x="562" y="195" font-weight="800" fill="#fff">NATS JetStream</text>
    <text x="566" y="222">Durable transport</text>

    <rect x="788" y="160" width="210" height="86" rx="16" fill="#151c31" stroke="#334155"/>
    <text x="832" y="195" font-weight="800" fill="#fff">Storage Manager</text>
    <text x="834" y="222">Consume and persist</text>

    <rect x="1060" y="160" width="170" height="86" rx="16" fill="#102a2e" stroke="#2dd4bf"/>
    <text x="1102" y="195" font-weight="800" fill="#fff">MongoDB</text>
    <text x="1096" y="222">Logs + metadata</text>

    <rect x="48" y="430" width="170" height="86" rx="16" fill="#151c31" stroke="#334155"/>
    <text x="105" y="465" font-weight="800" fill="#fff">Users</text>
    <text x="82" y="492">Admins, viewers</text>

    <rect x="288" y="430" width="170" height="86" rx="16" fill="#111827" stroke="#14b8e6"/>
    <text x="360" y="465" font-weight="800" fill="#fff">UI</text>
    <text x="316" y="492">Dark admin console</text>

    <rect x="548" y="430" width="230" height="104" rx="16" fill="#151c31" stroke="#334155"/>
    <text x="588" y="465" font-weight="800" fill="#fff">Console Manager</text>
    <text x="585" y="492">Users + pipelines</text>
    <text x="594" y="516">RSQL + log reads</text>
  </g>

  <g stroke="#9fb1d5" stroke-width="3" fill="none" marker-end="url(#arrow)">
    <path d="M218 203 H288"/>
    <path d="M458 203 H528"/>
    <path d="M718 203 H788"/>
    <path d="M998 203 H1060"/>
    <path d="M218 473 H288"/>
    <path d="M458 473 H548"/>
    <path d="M778 482 C920 482 992 300 1060 223"/>
  </g>

  <g font-family="Inter,Arial" font-size="13" fill="#9fb1d5">
    <text x="52" y="135">Ingestion flow</text>
    <text x="52" y="405">Administration and query flow</text>
  </g>
</svg>
